# xmcd
#
# Track frame offsets: 
#        150
#        27055
#        54442
#        79812
#        111497
#        136947
#        172057
#        205007
#        236330
#        270012
#        298910
#        308387
#
# Disc length: 4238 seconds
#
# Revision: 1
# Processed by: cddbd v1.5.2PL0 Copyright (c) Steve Scherf et al.
# Submitted via: ExactAudioCopy v0.99pb4
#
DISCID=9a108c0c
DTITLE=Hall and Oates - 12 Inch Collection Vol.2
DYEAR=2003
DGENRE=Rock
TTITLE0=Maneater (Extended Club Mix)
TTITLE1=I Can't Go For That (No Can Do) (Extended Club Mix)
TTITLE2=Kiss On My List (Previously Unreleased Mix)
TTITLE3=Adult Education (Special Extended Mix)
TTITLE4=Your Imagination (Disco Remix)
TTITLE5=Method Of Modern Love (Extended Mix)
TTITLE6=Out Of Touch (Dub Version)
TTITLE7=Missed Opportunity (Unlimited Mix)
TTITLE8=Downtown Life (Downtown Remix)
TTITLE9=I Can't Go For That (No Can Do) (The Ben Liebrand Remix)
TTITLE10=Jingle Bell Rock (Daryl's Version)
TTITLE11=Jingle Bell Rock (John's Version)
EXTD=YEAR: 2003
EXTT0=
EXTT1=
EXTT2=
EXTT3=
EXTT4=
EXTT5=
EXTT6=
EXTT7=
EXTT8=
EXTT9=
EXTT10=
EXTT11=
PLAYORDER=
